<?xml version="1.0" encoding="UTF-8" standalone="no"?>
<svg
   width="294.59"
   height="201.57001"
   id="svg2"
   version="1.1"
   xmlns="http://www.w3.org/2000/svg"
   xmlns:svg="http://www.w3.org/2000/svg"
   xmlns:rdf="http://www.w3.org/1999/02/22-rdf-syntax-ns#"
   xmlns:cc="http://creativecommons.org/ns#"
   xmlns:dc="http://purl.org/dc/elements/1.1/">
  <metadata
     id="metadata32">
    <rdf:RDF>
      <cc:Work
         rdf:about="">
        <dc:format>image/svg+xml</dc:format>
        <dc:type
           rdf:resource="http://purl.org/dc/dcmitype/StillImage" />
      </cc:Work>
    </rdf:RDF>
  </metadata>
  <defs
     id="defs30" />
  <g
     transform="translate(0.44999999,0.44999999)"
     style="fill:#ffffff;fill-rule:evenodd;stroke:none"
     id="g4">
    <path
       d="m 0,143.93 c 0,0 143.71,0 143.71,0 0,0 0,-143.93 0,-143.93 C 143.71,0 0,143.93 0,143.93 z"
       id="path6" />
  </g>
  <g
     transform="translate(0.44999999,0.44999999)"
     style="fill:none;stroke:#000000;stroke-width:0.71999998pt;stroke-linecap:butt;stroke-linejoin:miter;stroke-dasharray:none"
     id="g8">
    <path
       d="m 0,143.93 c 0,0 143.71,0 143.71,0 0,0 0,-143.93 0,-143.93 C 143.71,0 0,143.93 0,143.93 z"
       id="path10" />
  </g>
  <g
     transform="translate(107.799,72.964)"
     style="fill:#000000;fill-rule:evenodd;stroke:none"
     id="g12">
    <path
       d="m 23.829,0 c 0,0 5.183,0 5.183,0 0,0 0,28.2922 0,28.2922 0,1.8 -0.504,3.887 -1.511,6.191 -1.008,2.304 -2.592,4.247 -4.824,5.903 -2.231,1.584 -5.039,2.448 -8.351,2.448 -2.519,-0.072 -4.679,-0.576 -6.479,-1.44 -1.8,-0.936 -3.311,-2.16 -4.463,-3.671 -1.08,-1.44 -1.944,-3.024 -2.448,-4.608 C 0.36,31.5312 0.072,29.9482 0,28.4362 0,25.8443 0.36,23.6126 1.152,21.669 2.016,19.7251 3.024,18.0694 4.32,16.8455 5.616,15.5499 7.056,14.542 8.567,13.8941 c 1.512,-0.648 2.952,-1.0081 4.392,-1.0081 3.887,0 6.839,0.648 8.782,1.8719 0,0 0,5.3991 0,5.3991 -2.447,-1.7275 -5.255,-2.5915 -8.351,-2.5915 -2.303,0.2881 -4.319,1.2959 -5.903,3.0957 -1.583,1.7275 -2.375,4.1033 -2.375,6.983 0,0.576 0.072,1.008 0.072,1.296 0.144,2.231 0.791,4.103 1.872,5.471 1.007,1.368 2.231,2.376 3.599,2.952 1.44,0.504 2.735,0.791 4.031,0.791 1.944,0 3.6,-0.504 4.968,-1.583 1.367,-1.008 2.447,-2.376 3.095,-4.176 0.72,-1.727 1.08,-3.743 1.08,-6.047 0,0 0,-26.3482 0,-26.3482 z"
       id="path14" />
  </g>
  <g
     transform="translate(150.42,57.19)"
     style="fill:#000000;fill-rule:evenodd;stroke:none"
     id="g16">
    <path
       d="M 143.72,0 C 143.72,0 0,0 0,0 0,0 0,143.93 0,143.93 0,143.93 143.72,0 143.72,0 z"
       id="path18" />
  </g>
  <g
     transform="translate(150.42,57.19)"
     style="fill:none;stroke:#000000;stroke-width:0.71999998pt;stroke-linecap:butt;stroke-linejoin:miter;stroke-dasharray:none"
     id="g20">
    <path
       d="M 143.72,0 C 143.72,0 0,0 0,0 0,0 0,143.93 0,143.93 0,143.93 143.72,0 143.72,0 z"
       id="path22" />
  </g>
  <g
     transform="translate(157.772,85.774)"
     style="fill:#ffffff;fill-rule:evenodd;stroke:none"
     id="g24">
    <path
       d="m 5.184,42.8338 c 0,0 -5.184,0 -5.184,0 0,0 0,-28.292 0,-28.292 C 0,12.7419 0.504,10.6542 1.512,8.3505 2.52,6.0468 4.104,4.1032 6.335,2.4475 8.567,0.864 11.375,0 14.686,0 c 2.52,0.072 4.679,0.5759 6.479,1.4396 1.8,0.9358 3.312,2.1597 4.464,3.6714 1.08,1.4397 1.943,3.0237 2.447,4.6075 0.576,1.5837 0.864,3.1674 0.936,4.6793 0,2.592 -0.36,4.823 -1.152,6.767 -0.864,1.944 -1.871,3.6 -3.167,4.823 -1.296,1.296 -2.736,2.304 -4.248,2.952 -1.511,0.648 -2.951,1.008 -4.391,1.008 -3.887,0 -6.839,-0.648 -8.783,-1.872 0,0 0,-5.399 0,-5.399 2.448,1.727 5.255,2.591 8.351,2.591 2.304,-0.288 4.319,-1.295 5.903,-3.095 1.584,-1.728 2.376,-4.104 2.376,-6.983 0,-0.576 -0.072,-1.008 -0.072,-1.296 C 23.685,11.6621 23.037,9.7905 21.957,8.4226 20.949,7.0549 19.725,6.0468 18.358,5.4709 16.918,4.967 15.622,4.6791 14.326,4.6791 c -1.943,0 -3.599,0.504 -4.967,1.5838 -1.368,1.0078 -2.448,2.3757 -3.096,4.1753 -0.72,1.7278 -1.079,3.7436 -1.079,6.0476 0,0 0,26.348 0,26.348 z"
       id="path26" />
  </g>
</svg>
