<?xml version="1.0" encoding="UTF-8" standalone="no"?>
<svg
   width="381.1875pt"
   height="54.532051pt"
   version="1.1"
   id="svg50"
   xmlns="http://www.w3.org/2000/svg"
   xmlns:svg="http://www.w3.org/2000/svg">
  <defs
     id="defs54" />
  <g
     id="g62"
     transform="translate(-31,-24)">
    <g
       transform="translate(31,24)"
       style="fill:#000000;fill-rule:evenodd;stroke:none;stroke-width:0.07199pt;stroke-linecap:butt;stroke-linejoin:miter;stroke-dasharray:none"
       id="g4">
      <path
         d="m 31.8916,0 c 0,0 6.8391,0 6.8391,0 0,0 0,37.7226 0,37.7226 0,2.4478 -0.648,5.1834 -2.0159,8.2068 -1.2956,3.0237 -3.4553,5.6873 -6.407,7.9189 -2.9516,2.0874 -6.695,3.2393 -11.1584,3.2393 -3.3115,-0.072 -6.1912,-0.7197 -8.6389,-1.9434 C 8.06303,53.9204 6.11914,52.2646 4.60742,50.3208 3.0957,48.3772 2.01587,46.2895 1.2959,44.1298 0.57593,42.0419 0.14404,39.9543 0,37.9387 0,34.4831 0.57593,31.4594 1.65576,28.8679 2.7356,26.2043 4.10352,24.0446 5.8313,22.3886 c 1.72783,-1.7275 3.59933,-3.0234 5.6152,-3.8874 2.0156,-0.8638 3.9595,-1.2957 5.9031,-1.3677 5.1833,0 9.1428,0.8638 11.7344,2.5195 0,0 0,7.199 0,7.199 -3.3116,-2.3035 -7.055,-3.4553 -11.1585,-3.4553 -3.0955,0.3598 -5.7593,1.7278 -7.8469,4.1033 -2.08767,2.3757 -3.16747,5.4714 -3.16747,9.3588 0,0.7198 0,1.2957 0.072,1.7276 0.2158,3.0237 1.0799,5.4714 2.4475,7.271 1.36797,1.8718 3.02367,3.1677 4.89527,3.8874 1.8718,0.792 3.5996,1.1519 5.3274,1.1519 2.5195,0 4.7512,-0.7918 6.551,-2.0877 1.8718,-1.3676 3.3115,-3.2395 4.2476,-5.6152 0.9358,-2.3757 1.4397,-5.0393 1.4397,-8.0627 0,0 0,-35.1311 0,-35.1311 z"
         id="path2" />
    </g>
    <g
       transform="translate(74.9858,40.5576)"
       style="fill:#000000;fill-rule:evenodd;stroke:none;stroke-width:0.07199pt;stroke-linecap:butt;stroke-linejoin:miter;stroke-dasharray:none"
       id="g8">
      <path
         d="m 32.4675,39.3064 c 0,0 0,-22.5327 0,-22.5327 -0.072,-2.0159 -0.7199,-3.8155 -1.7277,-5.3992 C 29.6599,9.7905 28.2202,8.4948 26.2764,7.6308 24.4048,6.695 22.1731,6.1911 19.5813,6.1911 c -1.7998,0 -3.6714,0.4319 -5.6152,1.2959 -1.9436,0.8638 -3.5994,2.3035 -4.9673,4.3194 -1.3677,2.0156 -2.0877,4.6074 -2.1597,7.8469 0,2.8796 0.576,5.3992 1.7998,7.4868 1.2239,2.1597 2.8076,3.8154 4.7512,4.8955 1.9439,1.1516 4.0315,1.6558 6.2632,1.6558 3.7434,0 7.127,-1.7998 10.0066,-5.3274 0,0 0,8.2788 0,8.2788 -1.5837,0.864 -2.6636,1.512 -3.3835,1.8718 -0.7197,0.3599 -1.6558,0.648 -2.8076,0.8635 -1.1519,0.2881 -2.6636,0.504 -4.5354,0.504 -3.1675,0 -6.1912,-0.7195 -9.0706,-2.4473 C 6.9111,35.779 4.5354,33.4033 2.7356,30.3078 0.864,27.2842 0,23.6845 0,19.6533 0,16.0537 0.72,12.7422 2.3037,9.7905 3.8154,6.7671 6.1192,4.3913 9.1428,2.6635 12.1665,0.8637 15.8379,0 20.0852,0 c 3.0957,0 5.8313,0.4319 8.207,1.3676 2.4476,0.9361 4.4634,2.3038 6.1192,3.8877 1.6557,1.6558 2.8796,3.5994 3.6714,5.6871 0.792,2.0878 1.2239,4.3913 1.2239,6.695 0,0 0,21.669 0,21.669 0,0 -6.8392,0 -6.8392,0 z"
         id="path6" />
    </g>
    <g
       transform="translate(120.124,40.5576)"
       style="fill:#000000;fill-rule:evenodd;stroke:none;stroke-width:0.07199pt;stroke-linecap:butt;stroke-linejoin:miter;stroke-dasharray:none"
       id="g12">
      <path
         d="m 9.6472,20.8772 c 0,0 18.861,-10.9427 18.861,-10.9427 -1.08,-1.0798 -2.16,-2.0156 -3.312,-2.6635 -1.223,-0.72 -3.023,-1.0799 -5.543,-1.0799 -2.447,0 -4.607,0.648 -6.407,1.9436 -1.872,1.2959 -3.239,3.0237 -4.247,5.1834 -1.008,2.2317 -1.5121,4.6794 -1.5121,7.343 0.144,2.1597 0.7201,4.3193 1.6561,6.3352 1.007,2.0156 2.447,3.6714 4.247,4.8953 1.872,1.2239 4.103,1.7998 6.623,1.7998 3.816,-0.072 6.767,-1.1519 8.639,-3.1677 1.872,-2.0877 3.239,-5.1832 4.031,-9.2867 0,0 6.983,1.0078 6.983,1.0078 -0.071,1.8719 -0.504,3.8875 -1.367,5.9751 -0.864,2.0879 -2.16,4.1036 -3.888,5.9754 -1.656,1.8716 -3.815,3.3835 -6.335,4.6072 -2.52,1.0796 -5.399,1.6555 -8.639,1.7275 -3.383,0 -6.551,-0.8638 -9.574,-2.5913 C 6.8391,36.2109 4.4634,33.7632 2.6638,30.8117 0.936,27.7881 0,24.5486 0,21.093 0,17.5654 0.5759,14.4699 1.7998,11.8064 2.9517,9.0708 4.5354,6.8391 6.4072,5.1113 8.3512,3.3835 10.5112,2.0876 12.8142,1.2238 15.1182,0.4319 17.3492,0 19.5812,0 c 4.392,0 8.063,0.9358 11.015,2.8796 2.951,1.9436 5.543,4.9673 7.703,8.9988 0,0 -25.629,15.1179 -25.629,15.1179 0,0 -3.023,-6.1191 -3.023,-6.1191 z"
         id="path10" />
    </g>
    <g
       transform="translate(165.981,40.5576)"
       style="fill:#000000;fill-rule:evenodd;stroke:none;stroke-width:0.07199pt;stroke-linecap:butt;stroke-linejoin:miter;stroke-dasharray:none"
       id="g16">
      <path
         d="m 0,39.3064 c 0,0 0,-26.4922 0,-26.4922 C 0,10.5825 0.648,8.4948 1.8,6.551 3.024,4.5354 4.68,2.9516 6.912,1.7998 9.071,0.5759 11.663,0 14.542,0 c 4.392,0.072 7.991,1.7998 10.727,5.0393 1.008,-1.44 2.52,-2.6636 4.535,-3.5996 C 31.82,0.4319 34.124,0 36.716,0 c 2.303,0 4.463,0.5759 6.479,1.7278 2.087,1.1518 3.743,2.7356 4.895,4.6792 1.224,1.9438 1.872,4.1035 1.872,6.4072 0,0 0,26.4922 0,26.4922 0,0 -6.911,0 -6.911,0 0,0 0,-24.6924 0,-24.6924 0,-2.0879 -0.504,-4.0315 -1.512,-5.7593 -1.08,-1.6558 -2.88,-2.5915 -5.328,-2.6636 -2.663,0 -4.607,0.8638 -5.759,2.5196 -1.151,1.6557 -1.727,3.5996 -1.727,5.9033 0,0 0,24.6924 0,24.6924 0,0 -6.912,0 -6.912,0 0,0 0,-24.1885 0,-24.1885 0,-2.7356 -0.647,-4.8953 -1.871,-6.4793 C 18.718,7.0549 16.846,6.1911 14.399,6.1911 11.447,6.2632 9.431,7.1989 8.351,8.8547 7.343,10.5825 6.84,12.8142 6.84,15.6218 c 0,0 0,23.6846 0,23.6846 0,0 -6.84,0 -6.84,0 z"
         id="path14" />
    </g>
    <g
       transform="translate(221.918,40.5576)"
       style="fill:#000000;fill-rule:evenodd;stroke:none;stroke-width:0.07199pt;stroke-linecap:butt;stroke-linejoin:miter;stroke-dasharray:none"
       id="g20">
      <path
         d="M 0.144,19.4372 C 0.216,15.8379 1.224,12.4543 3.095,9.5027 5.039,6.551 7.559,4.1753 10.654,2.5195 13.75,0.8637 16.917,0 20.157,0 c 3.384,0 6.623,0.8637 9.719,2.3757 3.167,1.5117 5.687,3.7434 7.703,6.6951 2.015,3.0234 3.023,6.551 3.023,10.5825 0,3.0955 -0.792,6.1912 -2.232,9.2146 -1.439,3.0957 -3.599,5.6872 -6.551,7.7749 -2.879,2.0879 -6.263,3.0955 -10.222,3.2393 -3.24,0 -6.191,-0.504 -8.855,-1.5115 C 10.15,37.3628 7.847,35.851 5.903,33.9792 4.031,32.0356 2.52,29.8757 1.583,27.5002 0.576,25.0525 0,22.5329 0,19.7971 c 0.072,-0.0718 0.072,-0.1438 0.072,-0.2158 0.072,-0.072 0.072,-0.072 0.072,-0.1441 z m 7.343,-0.144 c 0,3.8874 1.008,7.271 3.095,10.0786 2.088,2.8796 5.399,4.3196 10.079,4.3196 2.376,0 4.463,-0.4321 6.335,-1.44 1.872,-0.9358 3.384,-2.5195 4.463,-4.7512 1.08,-2.1597 1.656,-5.0393 1.656,-8.4949 C 32.899,15.1179 31.675,12.0222 29.3,9.7187 26.924,7.415 23.972,6.1911 20.301,6.1911 17.493,6.2632 15.118,6.9829 13.174,8.2788 11.302,9.5747 9.862,11.2304 8.927,13.174 8.063,15.1899 7.559,17.2055 7.487,19.2932 Z"
         id="path18" />
    </g>
    <g
       transform="translate(268.351,40.5576)"
       style="fill:#000000;fill-rule:evenodd;stroke:none;stroke-width:0.07199pt;stroke-linecap:butt;stroke-linejoin:miter;stroke-dasharray:none"
       id="g24">
      <path
         d="m 0,39.3064 c 0,0 0,-23.3968 0,-23.3968 C 0,13.102 0.72,10.4384 2.088,8.0627 3.528,5.6152 5.472,3.6714 7.991,2.2317 10.511,0.8637 13.246,0.072 16.198,0 c 2.16,0 4.536,0.5759 7.055,1.6557 2.52,1.0799 4.679,2.8797 6.479,5.3992 1.8,2.5198 2.736,5.6873 2.736,9.5027 0,0 0,22.7488 0,22.7488 0,0 -6.911,0 -6.911,0 0,0 0,-22.8926 0,-22.8926 0,-2.7358 -0.864,-5.1113 -2.592,-7.0552 -1.8,-2.0156 -4.031,-3.0234 -6.767,-3.1675 -2.591,0 -4.823,0.9358 -6.623,2.8077 -1.8,1.8715 -2.736,4.1032 -2.736,6.695 0,0 0,23.6126 0,23.6126 0,0 -6.839,0 -6.839,0 z"
         id="path22" />
    </g>
    <g
       transform="translate(306.938,41.7814)"
       style="fill:#000000;fill-rule:evenodd;stroke:none;stroke-width:0.07199pt;stroke-linecap:butt;stroke-linejoin:miter;stroke-dasharray:none"
       id="g28">
      <path
         d="m 0,31.2437 c 0,0 19.365,0 19.365,0 0.144,0 0.36,0.072 0.576,0.1438 1.224,-0.0718 2.304,-0.3599 3.168,-0.7917 0.864,-0.4319 1.368,-1.2959 1.44,-2.5916 0,-0.936 -0.36,-1.7998 -1.08,-2.4478 -0.72,-0.6479 -1.728,-1.2959 -2.808,-1.7277 -1.08,-0.4319 -2.952,-1.0799 -5.543,-1.7998 C 12.598,21.2371 11.158,20.805 11.014,20.805 7.271,19.5813 4.535,18.1414 2.736,16.6297 1.008,15.0459 0.072,12.8863 0,10.0787 0,6.335 1.296,3.7435 3.815,2.2317 6.407,0.7918 9.503,0 13.102,0 c 0,0 16.414,0 16.414,0 0,0 0,6.2632 0,6.2632 0,0 -17.782,0 -17.782,0 -1.368,0 -2.447,0.2879 -3.167,0.9358 -0.792,0.576 -1.152,1.4397 -1.152,2.5196 0.072,0.7919 0.432,1.5119 1.152,2.1596 0.72,0.648 1.727,1.1519 2.807,1.584 1.152,0.4319 2.376,0.7918 3.6,1.0798 1.296,0.3599 2.591,0.648 3.887,1.0079 4.392,1.2238 7.631,2.8796 9.575,4.8232 1.944,1.9438 2.952,4.4634 2.952,7.4871 -0.432,6.8391 -4.608,10.2224 -12.383,10.2224 0,0 -2.375,0 -2.375,0 0,0 -16.63,0 -16.63,0 0,0 0,-6.8389 0,-6.8389 z"
         id="path26" />
    </g>
    <g
       transform="translate(365.322,40.5576)"
       style="fill:#000000;fill-rule:evenodd;stroke:none;stroke-width:0.07199pt;stroke-linecap:butt;stroke-linejoin:miter;stroke-dasharray:none"
       id="g32">
      <path
         d="m 0,56.1518 c 0,0 0,-36.2107 0,-36.2107 0.144,-3.5273 0.792,-6.551 2.016,-9.0708 C 3.168,8.2788 4.751,6.1911 6.623,4.6074 8.495,3.0234 10.51,1.7998 12.67,1.0798 14.83,0.3598 17.062,0 19.293,0 c 4.464,0 8.279,1.0078 11.303,3.0954 3.023,2.0879 5.255,4.6795 6.623,7.7032 1.439,3.0954 2.159,6.0471 2.159,8.8547 0,2.0876 -0.288,4.2473 -0.864,6.407 -0.647,2.2317 -1.583,4.3913 -2.951,6.3352 -1.44,2.0156 -3.312,3.7434 -5.687,5.1113 -2.448,1.3677 -5.4,2.0874 -8.783,2.3753 -2.016,0 -3.888,-0.1438 -5.543,-0.504 -1.656,-0.2155 -3.6,-1.0075 -5.903,-2.1594 0,0 0,-7.199 0,-7.199 0.287,0.0721 1.151,0.504 2.663,1.2239 1.44,0.648 2.448,1.1519 3.168,1.4397 0.72,0.2881 1.44,0.4322 2.16,0.576 0.719,0.144 1.583,0.144 2.591,0.144 2.448,0 4.679,-0.648 6.479,-1.7998 1.872,-1.2239 3.312,-2.8797 4.32,-4.8953 0.935,-2.0156 1.439,-4.3193 1.439,-6.7671 0,-2.6635 -0.576,-4.9673 -1.871,-6.9829 C 29.372,11.0144 27.716,9.5027 25.7,8.4228 23.685,7.343 21.597,6.8391 19.437,6.8391 c -2.016,0 -4.031,0.5759 -5.975,1.6557 -1.944,1.0799 -3.528,2.7356 -4.751,4.9673 -1.224,2.3037 -1.872,5.1114 -1.872,8.3509 0,0 0,34.3388 0,34.3388 0,0 -6.839,0 -6.839,0 z"
         id="path30" />
    </g>
    <g
       transform="translate(408.66,40.5576)"
       style="fill:#000000;fill-rule:evenodd;stroke:none;stroke-width:0.07199pt;stroke-linecap:butt;stroke-linejoin:miter;stroke-dasharray:none"
       id="g36">
      <path
         d="M 0.144,19.4372 C 0.216,15.8379 1.224,12.4543 3.095,9.5027 5.039,6.551 7.559,4.1753 10.654,2.5195 13.75,0.8637 16.917,0 20.157,0 c 3.383,0 6.623,0.8637 9.719,2.3757 3.167,1.5117 5.687,3.7434 7.703,6.6951 2.015,3.0234 3.023,6.551 3.023,10.5825 0,3.0955 -0.792,6.1912 -2.231,9.2146 -1.44,3.0957 -3.6,5.6872 -6.551,7.7749 -2.88,2.0879 -6.264,3.0955 -10.223,3.2393 -3.24,0 -6.191,-0.504 -8.855,-1.5115 C 10.15,37.3628 7.847,35.851 5.903,33.9792 4.031,32.0356 2.52,29.8757 1.584,27.5002 0.576,25.0525 0,22.5329 0,19.7971 c 0.072,-0.0718 0.072,-0.1438 0.072,-0.2158 0.072,-0.072 0.072,-0.072 0.072,-0.1441 z m 7.343,-0.144 c 0,3.8874 1.008,7.271 3.095,10.0786 2.088,2.8796 5.4,4.3196 10.079,4.3196 2.376,0 4.463,-0.4321 6.335,-1.44 1.872,-0.9358 3.384,-2.5195 4.463,-4.7512 1.08,-2.1597 1.656,-5.0393 1.656,-8.4949 C 32.899,15.1179 31.675,12.0222 29.3,9.7187 26.924,7.415 23.973,6.1911 20.301,6.1911 17.493,6.2632 15.118,6.9829 13.174,8.2788 11.302,9.5747 9.863,11.2304 8.927,13.174 8.063,15.1899 7.559,17.2055 7.487,19.2932 Z"
         id="path34" />
    </g>
    <g
       transform="translate(458.189,28.6792)"
       style="fill:#000000;fill-rule:evenodd;stroke:none;stroke-width:0.07199pt;stroke-linecap:butt;stroke-linejoin:miter;stroke-dasharray:none"
       id="g40">
      <path
         d="M 0,3.88746 C 0.072,2.80762 0.504,1.87183 1.296,1.07984 2.088,0.36011 3.023,0 4.103,0 c 1.08,0 2.088,0.36011 2.88,1.15186 0.792,0.79199 1.224,1.72778 1.224,2.87964 0,1.29585 -0.36,2.23165 -1.152,2.95165 -0.72,0.7197 -1.656,1.1519 -2.736,1.1519 -1.151,0 -2.159,-0.4322 -3.023,-1.1519 C 0.432,6.19115 0,5.18335 0,3.88746 Z M 0.648,51.1849 c 0,0 0,-38.0827 0,-38.0827 0,0 6.839,0 6.839,0 0,0 0,38.0827 0,38.0827 0,0 -6.839,0 -6.839,0 z"
         id="path38" />
    </g>
    <g
       transform="translate(477.266,40.5576)"
       style="fill:#000000;fill-rule:evenodd;stroke:none;stroke-width:0.07199pt;stroke-linecap:butt;stroke-linejoin:miter;stroke-dasharray:none"
       id="g44">
      <path
         d="m 0,39.3064 c 0,0 0,-23.3968 0,-23.3968 C 0,13.102 0.72,10.4384 2.088,8.0627 3.528,5.6152 5.472,3.6714 7.991,2.2317 10.511,0.8637 13.246,0.072 16.198,0 c 2.16,0 4.536,0.5759 7.055,1.6557 2.52,1.0799 4.68,2.8797 6.479,5.3992 1.8,2.5198 2.736,5.6873 2.736,9.5027 0,0 0,22.7488 0,22.7488 0,0 -6.911,0 -6.911,0 0,0 0,-22.8926 0,-22.8926 0,-2.7358 -0.864,-5.1113 -2.592,-7.0552 -1.8,-2.0156 -4.031,-3.0234 -6.767,-3.1675 -2.592,0 -4.823,0.9358 -6.623,2.8077 -1.8,1.8715 -2.736,4.1032 -2.736,6.695 0,0 0,23.6126 0,23.6126 0,0 -6.839,0 -6.839,0 z"
         id="path42" />
    </g>
    <g
       transform="translate(518.517,31.7749)"
       style="fill:#000000;fill-rule:evenodd;stroke:none;stroke-width:0.07199pt;stroke-linecap:butt;stroke-linejoin:miter;stroke-dasharray:none"
       id="g48">
      <path
         d="M 0,36.1389 C 0,36.1389 0,0 0,0 c 0,0 6.838,0 6.838,0 0,0 0,10.0065 0,10.0065 0,0 13.895,0 13.895,0 0,0 0,6.2632 0,6.2632 0,0 -13.895,0 -13.895,0 0,0 0,21.597 0,21.597 0,1.0798 0.433,2.0156 1.296,2.8076 0.864,0.7917 2.16,1.2239 3.816,1.2239 0,0 8.783,0 8.783,0 0,0 0,6.1909 0,6.1909 0,0 -8.855,0 -8.855,0 -2.808,0 -5.04,-0.5039 -6.839,-1.5838 C 3.239,45.4255 1.943,43.9138 1.151,42.114 0.432,40.3142 0,38.2985 0,36.1389 Z"
         id="path46" />
    </g>
  </g>
</svg>
